<svg width="230" height="41" viewBox="0 0 230 41" fill="none" xmlns="http://www.w3.org/2000/svg">
<rect x="188.696" y="10.115" width="41.2736" height="22.3857" rx="5.59642" fill="#AA4133" fill-opacity="0.2"/>
<path d="M197.34 22.9735V21.9487H199.541V22.9735H197.34ZM204.321 24.7114H200.132V23.8302L201.636 22.3094C202.081 21.8531 202.372 21.5375 202.509 21.3626C202.646 21.185 202.744 21.021 202.804 20.8707C202.864 20.7204 202.894 20.5647 202.894 20.4034C202.894 20.163 202.827 19.984 202.693 19.8665C202.562 19.749 202.386 19.6902 202.165 19.6902C201.932 19.6902 201.707 19.7435 201.488 19.8501C201.27 19.9567 201.041 20.1083 200.804 20.3051L200.115 19.4894C200.41 19.238 200.655 19.0604 200.849 18.9565C201.043 18.8527 201.255 18.7734 201.484 18.7188C201.714 18.6614 201.971 18.6327 202.255 18.6327C202.629 18.6327 202.96 18.701 203.247 18.8376C203.534 18.9743 203.756 19.1656 203.915 19.4115C204.073 19.6574 204.153 19.9389 204.153 20.2559C204.153 20.5319 204.103 20.7915 204.005 21.0347C203.909 21.2751 203.759 21.5224 203.554 21.7766C203.352 22.0307 202.994 22.3928 202.48 22.8628L201.71 23.5883V23.6457H204.321V24.7114ZM206.473 23.8302C206.33 24.3821 206.09 25.0366 205.751 25.7935H204.849C205.027 25.0667 205.165 24.3808 205.263 23.7359H206.411L206.473 23.8302ZM209.543 20.883C210.122 20.883 210.582 21.0456 210.924 21.3708C211.268 21.696 211.44 22.1414 211.44 22.707C211.44 23.3765 211.234 23.8916 210.822 24.2523C210.409 24.6131 209.819 24.7934 209.051 24.7934C208.384 24.7934 207.846 24.6855 207.436 24.4696V23.3752C207.652 23.4899 207.903 23.5842 208.19 23.658C208.477 23.729 208.749 23.7646 209.006 23.7646C209.779 23.7646 210.166 23.4476 210.166 22.8136C210.166 22.2097 209.765 21.9078 208.965 21.9078C208.82 21.9078 208.66 21.9228 208.485 21.9528C208.31 21.9802 208.168 22.0102 208.059 22.043L207.555 21.7725L207.78 18.7188H211.031V19.7927H208.891L208.78 20.9691L208.924 20.9404C209.09 20.9021 209.297 20.883 209.543 20.883ZM213.113 20.5141C213.113 20.8612 213.143 21.1208 213.203 21.2929C213.266 21.4623 213.366 21.547 213.502 21.547C213.765 21.547 213.896 21.2027 213.896 20.5141C213.896 19.831 213.765 19.4894 213.502 19.4894C213.366 19.4894 213.266 19.5741 213.203 19.7435C213.143 19.9102 213.113 20.1671 213.113 20.5141ZM214.929 20.5059C214.929 21.1344 214.807 21.6072 214.564 21.9241C214.321 22.2384 213.964 22.3955 213.494 22.3955C213.043 22.3955 212.695 22.2343 212.449 21.9118C212.203 21.5867 212.08 21.118 212.08 20.5059C212.08 19.2571 212.551 18.6327 213.494 18.6327C213.956 18.6327 214.31 18.7953 214.556 19.1205C214.804 19.4429 214.929 19.9047 214.929 20.5059ZM217.749 18.7188L214.425 24.7114H213.441L216.765 18.7188H217.749ZM217.31 22.9079C217.31 23.2549 217.34 23.5145 217.4 23.6867C217.463 23.8561 217.563 23.9408 217.7 23.9408C217.962 23.9408 218.093 23.5965 218.093 22.9079C218.093 22.2247 217.962 21.8832 217.7 21.8832C217.563 21.8832 217.463 21.9679 217.4 22.1373C217.34 22.304 217.31 22.5608 217.31 22.9079ZM219.126 22.8997C219.126 23.5255 219.004 23.9968 218.761 24.3138C218.518 24.6281 218.161 24.7852 217.691 24.7852C217.24 24.7852 216.892 24.624 216.646 24.3015C216.4 23.9763 216.277 23.5091 216.277 22.8997C216.277 21.6509 216.749 21.0265 217.691 21.0265C218.153 21.0265 218.507 21.1891 218.753 21.5143C219.002 21.8367 219.126 22.2985 219.126 22.8997Z" fill="#C61515"/>
<path d="M0.941918 3.93802H3.11777C4.10926 3.93802 4.82817 4.07988 5.2745 4.36362C5.72402 4.64417 5.94877 5.0921 5.94877 5.70739C5.94877 6.12503 5.84994 6.46775 5.65228 6.73554C5.45781 7.00334 5.19799 7.16434 4.8728 7.21854V7.26636C5.31594 7.36519 5.63475 7.55009 5.82922 7.82108C6.02688 8.09207 6.12571 8.45232 6.12571 8.90183C6.12571 9.53945 5.89458 10.0368 5.43231 10.3938C4.97323 10.7509 4.34837 10.9294 3.55773 10.9294H0.941918V3.93802ZM2.42437 6.70685H3.28515C3.68684 6.70685 3.97696 6.64468 4.15549 6.52035C4.33721 6.39601 4.42807 6.19038 4.42807 5.90346C4.42807 5.63566 4.32924 5.44438 4.13158 5.32961C3.93711 5.21165 3.62786 5.15267 3.20385 5.15267H2.42437V6.70685ZM2.42437 7.88325V9.70523H3.39035C3.79842 9.70523 4.0997 9.62712 4.29417 9.4709C4.48864 9.31469 4.58588 9.07558 4.58588 8.75359C4.58588 8.17336 4.17143 7.88325 3.34253 7.88325H2.42437ZM7.34515 4.20103C7.34515 3.72601 7.60976 3.4885 8.13898 3.4885C8.66819 3.4885 8.9328 3.72601 8.9328 4.20103C8.9328 4.42738 8.86585 4.60432 8.73196 4.73184C8.60125 4.85618 8.40359 4.91835 8.13898 4.91835C7.60976 4.91835 7.34515 4.67924 7.34515 4.20103ZM8.86585 10.9294H7.40731V5.58306H8.86585V10.9294ZM12.6533 9.86304C12.9083 9.86304 13.2144 9.80724 13.5714 9.69566V10.7812C13.208 10.9438 12.7617 11.0251 12.2325 11.0251C11.649 11.0251 11.2234 10.8784 10.9556 10.5851C10.691 10.2886 10.5587 9.8455 10.5587 9.25571V6.67816H9.86053V6.06127L10.6639 5.57349L11.0847 4.44492H12.0173V5.58306H13.5141V6.67816H12.0173V9.25571C12.0173 9.46293 12.0746 9.61596 12.1894 9.71479C12.3074 9.81362 12.462 9.86304 12.6533 9.86304ZM16.828 11.0251C15.1639 11.0251 14.3318 10.1117 14.3318 8.28494C14.3318 7.37634 14.5581 6.68294 15.0109 6.20473C15.4636 5.72333 16.1123 5.48263 16.9572 5.48263C17.5756 5.48263 18.1304 5.60378 18.6213 5.84607L18.1909 6.97465C17.9614 6.88219 17.7478 6.80727 17.5501 6.74989C17.3525 6.68932 17.1548 6.65903 16.9572 6.65903C16.1984 6.65903 15.819 7.19781 15.819 8.27538C15.819 9.32106 16.1984 9.84391 16.9572 9.84391C17.2377 9.84391 17.4975 9.80724 17.7366 9.73392C17.9758 9.65741 18.2149 9.53945 18.454 9.38004V10.6282C18.218 10.778 17.9789 10.8816 17.7366 10.939C17.4975 10.9964 17.1947 11.0251 16.828 11.0251ZM20.8594 8.24669C20.8594 8.77591 20.9454 9.17601 21.1176 9.44699C21.2929 9.71798 21.5767 9.85347 21.9688 9.85347C22.3577 9.85347 22.6367 9.71957 22.8057 9.45177C22.9778 9.18079 23.0639 8.77909 23.0639 8.24669C23.0639 7.71747 22.9778 7.32055 22.8057 7.05594C22.6335 6.79133 22.3514 6.65903 21.9592 6.65903C21.5703 6.65903 21.2897 6.79133 21.1176 7.05594C20.9454 7.31737 20.8594 7.71428 20.8594 8.24669ZM24.5559 8.24669C24.5559 9.11703 24.3264 9.79768 23.8673 10.2886C23.4082 10.7796 22.769 11.0251 21.9497 11.0251C21.4364 11.0251 20.9837 10.9135 20.5916 10.6903C20.1994 10.464 19.8982 10.1404 19.6877 9.71957C19.4773 9.29875 19.3721 8.80779 19.3721 8.24669C19.3721 7.37316 19.6001 6.6941 20.056 6.20951C20.5119 5.72493 21.1527 5.48263 21.9784 5.48263C22.4916 5.48263 22.9444 5.59422 23.3365 5.81738C23.7286 6.04054 24.0299 6.36095 24.2403 6.77858C24.4507 7.19622 24.5559 7.68559 24.5559 8.24669ZM25.6988 4.20103C25.6988 3.72601 25.9635 3.4885 26.4927 3.4885C27.0219 3.4885 27.2865 3.72601 27.2865 4.20103C27.2865 4.42738 27.2195 4.60432 27.0856 4.73184C26.9549 4.85618 26.7573 4.91835 26.4927 4.91835C25.9635 4.91835 25.6988 4.67924 25.6988 4.20103ZM27.2195 10.9294H25.761V5.58306H27.2195V10.9294ZM33.6897 10.9294H32.2312V7.80673C32.2312 7.42098 32.1626 7.13246 32.0256 6.94117C31.8885 6.7467 31.6701 6.64947 31.3704 6.64947C30.9623 6.64947 30.6674 6.78655 30.4857 7.06073C30.304 7.33171 30.2131 7.78282 30.2131 8.41406V10.9294H28.7546V5.58306H29.8688L30.0649 6.2669H30.1462C30.3088 6.00866 30.5319 5.81419 30.8157 5.68348C31.1026 5.54958 31.4278 5.48263 31.7912 5.48263C32.4129 5.48263 32.8847 5.6516 33.2067 5.98954C33.5287 6.32428 33.6897 6.80887 33.6897 7.44329V10.9294Z" fill="#312E52"/>
<path d="M8.26809 32.3832C8.26809 33.1797 7.98003 33.821 7.4039 34.3069C6.82777 34.7879 6.02119 35.0759 4.98416 35.1711V36.7116H3.95464V35.2012C2.73224 35.1761 1.66014 34.9607 0.738337 34.5549V32.571C1.17419 32.7864 1.69772 32.9768 2.30891 33.1421C2.92512 33.3075 3.4737 33.4052 3.95464 33.4352V31.1056L3.45115 30.9103C2.45921 30.5195 1.75533 30.0962 1.33952 29.6403C0.92871 29.1794 0.723308 28.6108 0.723308 27.9344C0.723308 27.208 1.00636 26.6118 1.57247 26.1459C2.14359 25.675 2.93765 25.3894 3.95464 25.2893V24.1395H4.98416V25.2592C6.13141 25.3093 7.16844 25.5397 8.09525 25.9505L7.38887 27.709C6.60734 27.3884 5.80577 27.193 4.98416 27.1228V29.3397C5.96107 29.7154 6.65493 30.0411 7.06574 30.3166C7.48155 30.5921 7.78465 30.8952 7.97502 31.2259C8.1704 31.5565 8.26809 31.9423 8.26809 32.3832ZM6.00616 32.4959C6.00616 32.2855 5.92099 32.1076 5.75066 31.9623C5.58033 31.817 5.32482 31.6667 4.98416 31.5114V33.3826C5.66549 33.2674 6.00616 32.9718 6.00616 32.4959ZM2.98524 27.9344C2.98524 28.1549 3.06039 28.3377 3.21068 28.483C3.36599 28.6233 3.61397 28.7686 3.95464 28.9189V27.1529C3.30837 27.2481 2.98524 27.5086 2.98524 27.9344ZM13.4683 28.7986C14.5304 28.7986 15.3745 29.0967 16.0007 29.6929C16.632 30.289 16.9476 31.1056 16.9476 32.1427C16.9476 33.3701 16.5694 34.3144 15.8129 34.9757C15.0564 35.637 13.9743 35.9677 12.5665 35.9677C11.3441 35.9677 10.3572 35.7698 9.60571 35.374V33.3676C10.0015 33.578 10.4624 33.7508 10.9884 33.8861C11.5145 34.0164 12.0129 34.0815 12.4839 34.0815C13.9016 34.0815 14.6105 33.5003 14.6105 32.3381C14.6105 31.2309 13.8766 30.6773 12.4087 30.6773C12.1432 30.6773 11.8501 30.7049 11.5295 30.76C11.2089 30.8101 10.9483 30.8652 10.748 30.9253L9.82364 30.4293L10.237 24.8309H16.1961V26.7997H12.2734L12.0705 28.9564L12.3336 28.9038C12.6392 28.8337 13.0174 28.7986 13.4683 28.7986ZM25.5144 27.2882C25.5144 27.9745 25.3065 28.5582 24.8907 29.0391C24.4749 29.52 23.8912 29.8507 23.1397 30.031V30.0761C24.0265 30.1863 24.6978 30.4569 25.1537 30.8877C25.6096 31.3136 25.8375 31.8897 25.8375 32.6161C25.8375 33.6732 25.4543 34.4973 24.6878 35.0885C23.9213 35.6746 22.8266 35.9677 21.4038 35.9677C20.2115 35.9677 19.1544 35.7698 18.2326 35.374V33.3976C18.6585 33.6131 19.1269 33.7884 19.6379 33.9237C20.1489 34.0589 20.6549 34.1266 21.1558 34.1266C21.9224 34.1266 22.4885 33.9963 22.8542 33.7358C23.2199 33.4753 23.4028 33.057 23.4028 32.4808C23.4028 31.9648 23.1923 31.5991 22.7715 31.3837C22.3507 31.1683 21.6794 31.0606 20.7576 31.0606H19.9234V29.2796H20.7726C21.6243 29.2796 22.2455 29.1694 22.6362 28.9489C23.032 28.7235 23.2299 28.3402 23.2299 27.7992C23.2299 26.9675 22.7089 26.5517 21.6668 26.5517C21.3061 26.5517 20.9379 26.6118 20.5622 26.7321C20.1915 26.8523 19.7781 27.0602 19.3223 27.3558L18.2476 25.7552C19.2496 25.0338 20.4445 24.673 21.8322 24.673C22.9694 24.673 23.8662 24.9035 24.5224 25.3644C25.1837 25.8253 25.5144 26.4666 25.5144 27.2882ZM27.3179 34.7428C27.3179 34.322 27.4306 34.0038 27.6561 33.7884C27.8815 33.573 28.2097 33.4653 28.6405 33.4653C29.0563 33.4653 29.377 33.5755 29.6024 33.7959C29.8329 34.0164 29.9481 34.332 29.9481 34.7428C29.9481 35.1386 29.8329 35.4517 29.6024 35.6821C29.3719 35.9076 29.0513 36.0203 28.6405 36.0203C28.2197 36.0203 27.8941 35.9101 27.6636 35.6896C27.4332 35.4642 27.3179 35.1486 27.3179 34.7428ZM35.2309 24.6881C36.283 24.6881 37.1297 24.9285 37.7709 25.4095C38.4172 25.8854 38.7403 26.5292 38.7403 27.3408C38.7403 27.9019 38.585 28.4029 38.2744 28.8437C37.9638 29.2796 37.4628 29.6703 36.7714 30.016C37.5931 30.4569 38.1817 30.9178 38.5374 31.3987C38.8981 31.8747 39.0785 32.3982 39.0785 32.9693C39.0785 33.8711 38.7253 34.5975 38.0189 35.1486C37.3125 35.6946 36.3832 35.9677 35.2309 35.9677C34.0286 35.9677 33.0842 35.7122 32.3979 35.2012C31.7115 34.6902 31.3684 33.9663 31.3684 33.0294C31.3684 32.4032 31.5337 31.8471 31.8643 31.3612C32.2 30.8752 32.736 30.4469 33.4725 30.0761C32.8463 29.6804 32.3954 29.257 32.1198 28.8061C31.8443 28.3553 31.7065 27.8618 31.7065 27.3257C31.7065 26.5392 32.0322 25.903 32.6834 25.417C33.3347 24.931 34.1839 24.6881 35.2309 24.6881ZM33.5176 32.8942C33.5176 33.325 33.6679 33.6607 33.9685 33.9011C34.269 34.1416 34.6799 34.2618 35.2009 34.2618C35.777 34.2618 36.2078 34.1391 36.4934 33.8936C36.779 33.6431 36.9217 33.315 36.9217 32.9092C36.9217 32.5735 36.779 32.2604 36.4934 31.9698C36.2129 31.6743 35.7545 31.3612 35.1182 31.0305C34.0511 31.5215 33.5176 32.1427 33.5176 32.8942ZM35.2159 26.3864C34.8201 26.3864 34.4995 26.4891 34.254 26.6945C34.0135 26.8949 33.8933 27.1654 33.8933 27.5061C33.8933 27.8067 33.9885 28.0772 34.1789 28.3177C34.3743 28.5531 34.7249 28.7961 35.2309 29.0466C35.7219 28.8162 36.0651 28.5807 36.2604 28.3402C36.4558 28.0998 36.5535 27.8217 36.5535 27.5061C36.5535 27.1604 36.4283 26.8874 36.1778 26.687C35.9273 26.4866 35.6067 26.3864 35.2159 26.3864ZM40.1606 31.1507C40.1606 28.9765 40.619 27.3583 41.5358 26.2962C42.4576 25.2341 43.8353 24.7031 45.6689 24.7031C46.2951 24.7031 46.7861 24.7407 47.1418 24.8158V26.672C46.6959 26.5718 46.255 26.5217 45.8192 26.5217C45.0226 26.5217 44.3713 26.6419 43.8653 26.8824C43.3644 27.1228 42.9886 27.4785 42.7381 27.9495C42.4877 28.4204 42.3399 29.0892 42.2948 29.9559H42.3925C42.8884 29.1042 43.6825 28.6784 44.7746 28.6784C45.7566 28.6784 46.5256 28.9865 47.0817 29.6027C47.6377 30.2189 47.9158 31.0706 47.9158 32.1577C47.9158 33.33 47.5851 34.2593 46.9238 34.9457C46.2625 35.627 45.3458 35.9677 44.1735 35.9677C43.3619 35.9677 42.653 35.7798 42.0468 35.4041C41.4456 35.0283 40.9797 34.4798 40.649 33.7583C40.3234 33.0369 40.1606 32.1677 40.1606 31.1507ZM44.1284 34.1115C44.6243 34.1115 45.0051 33.9462 45.2706 33.6156C45.5361 33.2799 45.6689 32.804 45.6689 32.1878C45.6689 31.6517 45.5436 31.2309 45.2931 30.9253C45.0477 30.6147 44.6744 30.4594 44.1735 30.4594C43.7025 30.4594 43.2992 30.6122 42.9636 30.9178C42.6329 31.2234 42.4676 31.5791 42.4676 31.9849C42.4676 32.581 42.6229 33.0845 42.9335 33.4953C43.2491 33.9061 43.6474 34.1115 44.1284 34.1115ZM56.2797 27.2882C56.2797 27.9745 56.0718 28.5582 55.656 29.0391C55.2401 29.52 54.6565 29.8507 53.905 30.031V30.0761C54.7918 30.1863 55.4631 30.4569 55.919 30.8877C56.3749 31.3136 56.6028 31.8897 56.6028 32.6161C56.6028 33.6732 56.2196 34.4973 55.4531 35.0885C54.6866 35.6746 53.5919 35.9677 52.1691 35.9677C50.9768 35.9677 49.9197 35.7698 48.9979 35.374V33.3976C49.4237 33.6131 49.8922 33.7884 50.4032 33.9237C50.9142 34.0589 51.4202 34.1266 51.9211 34.1266C52.6876 34.1266 53.2537 33.9963 53.6195 33.7358C53.9852 33.4753 54.168 33.057 54.168 32.4808C54.168 31.9648 53.9576 31.5991 53.5368 31.3837C53.116 31.1683 52.4447 31.0606 51.5229 31.0606H50.6887V29.2796H51.5379C52.3896 29.2796 53.0108 29.1694 53.4015 28.9489C53.7973 28.7235 53.9952 28.3402 53.9952 27.7992C53.9952 26.9675 53.4742 26.5517 52.4321 26.5517C52.0714 26.5517 51.7032 26.6118 51.3275 26.7321C50.9567 26.8523 50.5434 27.0602 50.0875 27.3558L49.0129 25.7552C50.0149 25.0338 51.2097 24.673 52.5975 24.673C53.7347 24.673 54.6314 24.9035 55.2877 25.3644C55.949 25.8253 56.2797 26.4666 56.2797 27.2882ZM60.6533 34.2017C60.3927 35.2137 59.9519 36.4136 59.3307 37.8013H57.6774C58.0031 36.4687 58.2561 35.2112 58.4364 34.0289H60.5405L60.6533 34.2017ZM69.9189 29.52C69.9189 31.6843 69.463 33.2999 68.5512 34.367C67.6394 35.4341 66.2592 35.9677 64.4106 35.9677C63.7593 35.9677 63.2659 35.9326 62.9302 35.8625V33.9988C63.351 34.104 63.7919 34.1566 64.2528 34.1566C65.0293 34.1566 65.6681 34.0439 66.1691 33.8185C66.67 33.588 67.0533 33.2298 67.3188 32.7439C67.5843 32.2529 67.7371 31.5791 67.7772 30.7224H67.687C67.3965 31.1933 67.0608 31.524 66.6801 31.7143C66.2993 31.9047 65.8234 31.9999 65.2523 31.9999C64.2954 31.9999 63.5414 31.6943 62.9903 31.0831C62.4392 30.4669 62.1637 29.6127 62.1637 28.5206C62.1637 27.3433 62.4969 26.414 63.1632 25.7326C63.8345 25.0463 64.7463 24.7031 65.8985 24.7031C66.7101 24.7031 67.419 24.8935 68.0252 25.2742C68.6364 25.655 69.1048 26.2086 69.4304 26.935C69.7561 27.6564 69.9189 28.5181 69.9189 29.52ZM65.9436 26.5668C65.4627 26.5668 65.0869 26.7321 64.8164 27.0627C64.5459 27.3934 64.4106 27.8693 64.4106 28.4905C64.4106 29.0216 64.5334 29.4424 64.7788 29.753C65.0243 30.0636 65.3975 30.2189 65.8985 30.2189C66.3694 30.2189 66.7727 30.0661 67.1084 29.7605C67.4441 29.4499 67.6119 29.0942 67.6119 28.6934C67.6119 28.0973 67.4541 27.5938 67.1385 27.183C66.8278 26.7722 66.4296 26.5668 65.9436 26.5668Z" fill="#312E52"/>
<g clip-path="url(#clip0_4708_569)">
<path d="M50.263 8.57894C49.5152 11.5786 46.4761 13.4021 43.4807 12.6543C40.4809 11.9066 38.6574 8.86755 39.4052 5.87219C40.153 2.87251 43.1877 1.04904 46.1875 1.79682C49.1829 2.54018 51.0108 5.57921 50.263 8.57894Z" fill="url(#paint0_linear_4708_569)"/>
<path d="M47.4991 6.52795C47.6084 5.78467 47.0444 5.38243 46.2661 5.11572L46.5197 4.10574L45.9076 3.95272L45.6628 4.93646C45.501 4.89711 45.3348 4.85776 45.1687 4.82279L45.4135 3.83467L44.8014 3.68164L44.5522 4.68725C44.4167 4.65664 44.2855 4.62604 44.1587 4.59543V4.59106L43.3105 4.38119L43.1487 5.03702C43.1487 5.03702 43.6034 5.14196 43.5947 5.14633C43.8439 5.20754 43.8876 5.37368 43.8789 5.50485L43.5903 6.65474C43.6078 6.65911 43.6297 6.66348 43.6559 6.6766C43.6341 6.67223 43.6122 6.66786 43.5903 6.65911L43.1881 8.26808C43.1575 8.34241 43.0788 8.45609 42.9083 8.41236C42.9126 8.42111 42.4623 8.30306 42.4623 8.30306L42.1562 9.00698L42.9564 9.20811C43.105 9.24746 43.2493 9.28243 43.3936 9.32178L43.14 10.3405L43.7521 10.4935L44.0057 9.48355C44.1718 9.52728 44.338 9.571 44.4954 9.61035L44.2462 10.616L44.8583 10.769L45.1119 9.75026C46.1612 9.94701 46.9482 9.86831 47.2761 8.91954C47.5428 8.15878 47.263 7.71718 46.7121 7.42862C47.1187 7.3368 47.4204 7.0701 47.4991 6.52795ZM46.0956 8.49544C45.9076 9.2562 44.6222 8.84521 44.2068 8.74028L44.5435 7.38927C44.9588 7.4942 46.2967 7.6997 46.0956 8.49544ZM46.288 6.51483C46.1131 7.21001 45.0463 6.85586 44.7009 6.76842L45.0069 5.5442C45.3523 5.63164 46.4672 5.79342 46.288 6.51483Z" fill="#312E52"/>
</g>
<path d="M157.799 22.1825C154.738 19.9082 154.558 3.5337 150.597 3.53369C146.635 3.53369 147.536 31.2794 143.394 31.2794C139.253 31.2794 139.523 18.983 135.832 18.9985C132.14 19.0141 132.951 36.7376 128.99 36.7376C125.028 36.7376 125.052 24.9116 121.967 24.9116C118.546 24.9116 117.286 14.45 114.585 14.9049C111.884 15.3597 110.264 26.2761 107.383 26.2761C104.502 26.2761 102.521 19.4534 100.18 19.4534" stroke="#F5683B" stroke-width="0.946938" stroke-linecap="round"/>
<g opacity="0.1">
<path d="M157.798 0.929443V39.3418" stroke="white" stroke-opacity="0.3" stroke-width="0.435679"/>
<path d="M143.394 0.929443V39.3418" stroke="white" stroke-opacity="0.3" stroke-width="0.435679"/>
<path d="M128.989 0.929443V39.3418" stroke="white" stroke-opacity="0.3" stroke-width="0.435679"/>
<path d="M100.18 0.929443V39.3418" stroke="white" stroke-opacity="0.3" stroke-width="0.435679"/>
<path d="M114.584 0.929443V39.3418" stroke="white" stroke-opacity="0.3" stroke-width="0.435679"/>
</g>
<defs>
<linearGradient id="paint0_linear_4708_569" x1="44.8309" y1="1.62646" x2="44.8309" y2="12.8209" gradientUnits="userSpaceOnUse">
<stop stop-color="#F9AA4B"/>
<stop offset="1" stop-color="#F7931A"/>
</linearGradient>
<clipPath id="clip0_4708_569">
<rect width="11.1928" height="11.1928" fill="white" transform="translate(39.2373 1.62891)"/>
</clipPath>
</defs>
</svg>
